<?xml version="1.0" encoding="UTF-8" standalone="no"?>
<!-- Created with Inkscape (http://www.inkscape.org/) -->

<svg
   width="169"
   height="320"
   viewBox="0 0 44.714582 84.666668"
   version="1.1"
   id="svg5"
   inkscape:version="1.1 (c68e22c387, 2021-05-23)"
   sodipodi:docname="border-figure.svg"
   inkscape:export-filename="C:\Dev\Src\HTML-CSS\edX_Course_HTML5_Coding_Essentials_And_Best_Practices\PIGEON\border.png"
   inkscape:export-xdpi="96"
   inkscape:export-ydpi="96"
   xmlns:inkscape="http://www.inkscape.org/namespaces/inkscape"
   xmlns:sodipodi="http://sodipodi.sourceforge.net/DTD/sodipodi-0.dtd"
   xmlns="http://www.w3.org/2000/svg"
   xmlns:svg="http://www.w3.org/2000/svg">
  <sodipodi:namedview
     id="namedview7"
     pagecolor="#ffffff"
     bordercolor="#666666"
     borderopacity="1.0"
     inkscape:pageshadow="2"
     inkscape:pageopacity="0.0"
     inkscape:pagecheckerboard="0"
     inkscape:document-units="mm"
     showgrid="false"
     inkscape:zoom="1.0859962"
     inkscape:cx="34.530508"
     inkscape:cy="183.7023"
     inkscape:window-width="1920"
     inkscape:window-height="1051"
     inkscape:window-x="-9"
     inkscape:window-y="-9"
     inkscape:window-maximized="1"
     inkscape:current-layer="layer1"
     units="px"
     width="169.70081px"
     height="319.51965px"
     fit-margin-top="0"
     fit-margin-left="0"
     fit-margin-right="0"
     fit-margin-bottom="0" />
  <defs
     id="defs2" />
  <g
     inkscape:label="Layer 1"
     inkscape:groupmode="layer"
     id="layer1"
     transform="translate(-9.1621704,-27.190501)">
    <text
       xml:space="preserve"
       style="font-style:normal;font-weight:normal;font-size:10.5833px;line-height:1.25;font-family:sans-serif;fill:#000000;fill-opacity:1;stroke:none;stroke-width:0.264583"
       x="105.43156"
       y="116.11253"
       id="text1041"><tspan
         sodipodi:role="line"
         id="tspan1039"
         style="stroke-width:0.264583"
         x="105.43156"
         y="116.11253" /></text>
    <path
       style="fill:#f0b8dc;stroke-width:0.0654095;fill-opacity:1"
       id="path2855"
       d="m 13.306089,34.599418 c -0.0059,-0.629252 -0.01653,-1.259263 0.003,-1.888151 0.02149,-0.368787 0.0733,-0.743951 0.191771,-1.080275 0.06952,-0.19732 0.132967,-0.303104 0.226185,-0.483516 0.33745,-0.584864 0.7062,-1.142027 1.104545,-1.651303 0.139126,-0.185416 0.301109,-0.320974 0.467867,-0.452177 0.04461,-0.03517 0.177341,-0.143442 0.132678,-0.108331 -0.655977,0.515785 -0.784253,0.595333 -0.473745,0.390969 0.228452,-0.14062 0.478421,-0.153163 0.724647,-0.164654 0.189385,-0.005 0.398412,-5.87e-4 0.568801,0.131446 0.0937,0.07278 0.190763,0.211033 0.267408,0.31036 0.229172,0.322844 0.302511,0.742203 0.363318,1.168627 0.05655,0.402796 0.04618,0.8141 0.07293,1.220524 0.02098,0.190973 0.09213,0.476622 0.275844,0.446192 0.03609,-0.006 0.0693,-0.02992 0.103935,-0.04487 0.272663,-0.221374 0.549026,-0.43449 0.817998,-0.664121 0.127015,-0.108432 0.273716,-0.339517 0.382869,-0.480229 0.06545,-0.08439 0.258856,-0.325614 0.325688,-0.409194 0.06188,-0.06549 0.122842,-0.132527 0.185635,-0.196329 0.06611,-0.0672 0.132685,-0.133568 0.200999,-0.196491 0.06922,-0.06377 0.284351,-0.239434 0.211531,-0.183514 -0.962675,0.739331 -0.298323,0.253057 -0.135345,0.15271 0.112302,-0.06913 0.227733,-0.128436 0.3416,-0.192651 0.553487,-0.275848 1.131835,-0.439361 1.715776,-0.533948 0.185206,0.0031 0.449613,-0.07579 0.598248,0.129475 0.02127,0.02941 0.03521,0.06742 0.05277,0.101112 0.100844,0.364775 0.09385,0.766932 0.09765,1.151607 -7e-6,0.104724 4.01e-4,0.286237 -0.0015,0.393567 -4.37e-4,0.03982 -0.0015,0.07964 -0.0037,0.119309 -4.3e-4,0.01162 -0.01185,0.04022 -0.0044,0.03456 0.843014,-0.632517 0.648974,-0.297799 0.914115,-0.839368 0.175258,-0.291441 0.359314,-0.553291 0.592526,-0.760282 0.109953,-0.09763 0.211976,-0.232935 0.340421,-0.269358 0.105388,-0.02992 -0.177764,0.165615 -0.266637,0.248427 0.150725,-0.0859 0.301457,-0.17177 0.452183,-0.257655 0.598856,-0.299112 1.216914,-0.56071 1.854473,-0.642177 0.291512,-0.01849 0.531765,0.193751 0.717629,0.481554 0.134716,0.281144 0.182626,0.607967 0.20538,0.936682 0.01764,0.202737 -0.02928,0.492439 0.103824,0.644826 0.02261,0.02587 0.05277,0.03608 0.07912,0.05418 0.04106,-0.005 0.08323,-9.99e-4 0.123317,-0.01436 0.09153,-0.03043 0.216586,-0.123724 0.297953,-0.179148 0.183974,-0.12531 0.366978,-0.253127 0.550983,-0.378358 0.426494,-0.280578 0.84946,-0.571169 1.277586,-0.847107 0.3046,-0.183787 0.623684,-0.324631 0.955295,-0.373901 0.321758,-0.0286 0.528354,0.01112 0.778264,0.295757 0.184448,0.257898 0.194477,0.641896 0.212939,0.982595 0.01259,0.230945 0.04861,0.476199 0.235124,0.531391 0.167661,-0.005 0.313154,-0.155084 0.455037,-0.260718 0.08981,-0.0668 0.279141,-0.201807 0.363917,-0.262547 0.553573,-0.382409 1.145267,-0.647968 1.732597,-0.915164 0.372232,-0.175197 0.757191,-0.279152 1.148791,-0.323036 0.200218,0.01465 0.427443,-0.07792 0.621796,0.02324 0.03071,0.01598 0.058,0.04205 0.08708,0.06297 0.216701,0.248621 0.29504,0.626098 0.374272,0.982232 0.07519,0.29981 0.05558,0.622086 0.133466,0.918723 0.02755,0.0761 0.107831,0.223426 0.190035,0.162685 0.757638,-0.55977 0.620662,-0.416681 0.969712,-0.920067 0.261677,-0.395337 0.600381,-0.673266 0.936821,-0.933954 -0.151889,0.126897 -0.316042,0.229862 -0.455668,0.380692 -0.07728,0.08349 0.176769,-0.119195 0.266138,-0.175964 0.29418,-0.18687 0.596253,-0.346977 0.901175,-0.497746 0.254839,-0.11488 0.51378,-0.214733 0.779695,-0.266711 0.251566,-0.05588 0.496518,-0.03455 0.740742,0.05721 0.174414,0.101573 0.346197,0.224476 0.445256,0.451883 0.16374,0.345753 0.269622,0.731034 0.404742,1.096506 0.0909,0.233137 0.261362,0.34255 0.441838,0.203323 0.277975,-0.21444 0.548712,-0.44588 0.823071,-0.66883 0.182163,-0.164079 0.339544,-0.372375 0.525407,-0.529176 0.109026,-0.09197 0.223019,-0.17251 0.334039,-0.259931 -0.180929,0.144422 -0.365559,0.280547 -0.542781,0.433278 -0.05295,0.04559 0.112123,-0.0761 0.169172,-0.111294 0.05977,-0.03678 0.119707,-0.07318 0.181067,-0.104702 0.241166,-0.123765 0.491164,-0.196867 0.741621,-0.275475 0.309881,-0.108919 0.620005,-0.276413 0.92982,-0.09551 0.241495,0.249398 0.416644,0.598953 0.545097,0.968902 0.09991,0.210823 0.0477,0.510126 0.145886,0.718654 0.0143,0.03031 0.03733,0.05104 0.05603,0.07661 0.02368,0.01172 0.04626,0.03022 0.07116,0.03527 0.02231,0.005 0.04763,0.007 0.06752,-0.007 0.262805,-0.191749 0.518124,-0.402056 0.775162,-0.607836 0.0667,-0.05337 0.124483,-0.131688 0.189052,-0.190468 0.06716,-0.07832 0.143825,-0.133506 0.217703,-0.197057 0.02867,-0.02465 0.111769,-0.104 0.08241,-0.08095 -0.755984,0.592221 -0.749777,0.57879 -0.409151,0.362086 0.454514,-0.28384 0.937221,-0.457451 1.420178,-0.622692 0.22397,-0.07549 0.436051,-0.213996 0.665395,-0.258283 0.02211,0.0041 0.04559,9.99e-4 0.06626,0.01233 0.132706,0.07186 0.234154,0.40512 0.28636,0.568977 0.0869,0.272351 0.0855,0.574222 0.156207,0.851726 0.07197,0.215543 0.09154,0.450246 0.105142,0.683596 0.01942,0.33977 -0.02677,0.600073 -0.188061,0.8625 -0.10898,0.149516 -0.347647,0.25904 -0.129051,0.440562 0.239238,0.02667 0.457539,0.148971 0.674219,0.282488 0.255123,0.172528 0.462414,0.431255 0.638186,0.732863 0.166987,0.255362 0.257412,0.545622 0.303445,0.877115 0.01725,0.268481 0.05223,0.549098 0.01017,0.816637 -0.01076,0.06821 -0.02913,0.133821 -0.04376,0.200737 -0.110187,0.314999 -0.294022,0.57985 -0.498684,0.787235 -0.06299,0.06386 -0.264524,0.229864 -0.195619,0.178623 0.162663,-0.120994 0.318279,-0.258817 0.477426,-0.388232 -0.181467,0.131921 -0.375342,0.225285 -0.567227,0.323703 -0.06738,0.03456 -0.143381,0.04972 -0.200653,0.109282 -0.217815,0.226496 -0.427633,0.466951 -0.641452,0.700421 0.234723,0.117832 0.493775,0.07671 0.740086,0.09369 0.110272,0.03455 0.163404,0.0381 0.262733,0.128716 0.268461,0.245063 0.468712,0.626695 0.665886,0.966426 0.285232,0.502455 0.534678,1.04758 0.682224,1.652617 0.06345,0.321176 0.09469,0.654751 0.02821,0.977704 -0.01601,0.05074 -0.02578,0.10613 -0.04803,0.152286 -0.144239,0.298698 -0.598366,0.636802 -0.824134,0.817628 0.163398,-0.129899 0.32965,-0.253341 0.490206,-0.389707 0.06588,-0.05599 -0.136949,0.09985 -0.206005,0.148302 -0.225027,0.157773 -0.457204,0.292806 -0.685629,0.440644 -0.313726,0.227871 -1.412403,0.811179 -0.719156,0.937733 0.216667,0.02779 0.434542,0.01202 0.651465,0.02869 0.06581,0.01667 0.110824,0.0176 0.167243,0.0756 0.19432,0.199775 0.272397,0.562833 0.355284,0.855708 0.171585,0.586825 0.300236,1.19266 0.378064,1.81504 0.0033,0.066 0.01627,0.132718 0.0087,0.198017 -0.03635,0.311039 -0.407806,0.605714 -0.584516,0.755816 1.086007,-0.857933 0.472773,-0.374132 0.223268,-0.205294 -0.11522,0.07792 -0.232946,0.143664 -0.352777,0.206799 -0.292141,0.162433 -0.195548,0.101205 -0.689159,0.725043 -0.01601,0.02032 0.0395,0.02658 0.06076,0.03375 0.02782,0.0091 0.05669,0.01254 0.08529,0.01557 0.07352,0.0081 0.147329,0.007 0.220951,0.01254 0.327977,0.04174 0.429398,0.239645 0.572628,0.627281 0.154199,0.512866 0.229967,1.059093 0.288911,1.604914 0.04396,0.441677 0.05603,0.887222 0.06016,1.332374 -0.02743,0.414295 -0.158418,0.694075 -0.383995,0.959623 -0.247282,0.205445 -0.782753,0.671387 0.337503,-0.260233 0.03779,-0.03143 -0.07898,0.05488 -0.119123,0.08045 -0.110975,0.07064 -0.112504,0.0672 -0.226909,0.12236 -0.246344,0.104788 -0.499124,0.185433 -0.740835,0.309734 -0.205973,0.235036 -0.443124,0.427061 -0.617938,0.705101 -0.03234,0.05144 0.09638,0.03296 0.144935,0.0472 0.295735,0.08682 0.399224,0.119318 0.650639,0.36343 0.193795,0.229448 0.385005,0.479918 0.490042,0.805784 0.05846,0.181361 0.07576,0.307812 0.110843,0.497806 0.06305,0.47165 0.08953,0.957642 0.05065,1.43471 -0.05125,0.45341 -0.232177,0.809482 -0.462066,1.130232 -0.04908,0.05346 -0.09702,0.108918 -0.147303,0.160239 -0.05433,0.05549 -0.109748,0.108938 -0.166324,0.159997 -0.05433,0.04902 -0.22256,0.184908 -0.166285,0.140126 0.653604,-0.520132 0.709833,-0.552049 0.391101,-0.337143 -0.04474,0.03022 -0.08956,0.06043 -0.134345,0.09066 -0.344242,0.236634 -0.469939,0.31883 -0.92925,0.720048 -0.05321,0.04648 -0.03188,0.153317 -0.0059,0.204093 0.04442,0.08569 0.105647,0.113313 0.17074,0.157488 0.191892,0.101501 0.370203,0.244326 0.546455,0.387788 0.05137,0.04174 0.105745,0.07763 0.153654,0.126422 0.05065,0.05165 0.09376,0.115689 0.140637,0.173529 0.263205,0.439806 0.333789,1.003719 0.439929,1.536181 0.08512,0.41199 0.155767,0.830765 0.158247,1.260029 -0.02008,0.477007 -0.129083,0.686911 -0.436346,0.901532 0.185896,-0.156763 0.383129,-0.290905 0.557668,-0.470307 0.04403,-0.04527 -0.105989,0.04124 -0.159193,0.06074 -0.113566,0.04174 -0.396986,0.108422 -0.490823,0.176086 -0.268389,0.19351 -0.527368,0.410385 -0.791053,0.615578 -0.0046,0.03112 -0.01824,0.06257 -0.01313,0.09349 0.03536,0.215048 0.307348,0.255392 0.427567,0.327501 0.05354,0.03203 0.103751,0.07337 0.155617,0.109991 0.312663,0.257786 0.468732,0.578991 0.635397,1.00568 0.174021,0.52003 0.28756,1.070937 0.364627,1.631341 0.05485,0.440525 0.06246,0.888132 0.06502,1.333869 4.33e-4,0.167869 0.0059,0.440736 -0.0928,0.571585 -0.02953,0.03912 -0.140506,0.116204 -0.106612,0.08449 0.165924,-0.155256 0.335292,-0.303538 0.502936,-0.455319 -0.219037,0.102086 -0.446353,0.161877 -0.670959,0.234887 -0.04114,0.01335 -0.187536,0.05539 -0.239507,0.101593 -0.242203,0.215209 -0.478166,0.443171 -0.71726,0.664757 0.01437,0.03498 0.02454,0.07387 0.04297,0.105053 0.08698,0.146485 0.233267,0.247539 0.343579,0.355397 0.209588,0.20493 0.112838,0.103042 0.314126,0.334201 0.311981,0.382046 0.55833,0.841449 0.734982,1.358095 0.101933,0.376053 0.116696,0.780292 0.102845,1.176943 -0.02782,0.287491 -0.07301,0.675802 -0.191466,0.923393 -0.06515,0.136154 -0.176172,0.248569 -0.264819,0.35107 -0.190437,0.176328 -0.683346,0.626543 0.398567,-0.304267 0.05039,-0.04336 -0.105994,0.07428 -0.159894,0.108867 -0.159986,0.102715 -0.318771,0.168759 -0.489964,0.226406 -0.157519,0.05549 -0.314789,0.112242 -0.472052,0.169001 -0.033,0.01193 -0.06863,0.01465 -0.09872,0.03658 -0.259014,0.188516 -0.521877,0.370493 -0.766062,0.592787 -0.01889,0.01717 0.01017,0.06044 0.01529,0.09066 0.0206,0.0295 0.03766,0.06458 0.0618,0.08844 0.067,0.066 0.150092,0.09571 0.220761,0.154215 0.178705,0.14797 0.333278,0.339528 0.491801,0.523538 0.233432,0.275352 0.429674,0.6036 0.545858,0.997088 0.03156,0.107008 0.05433,0.218512 0.08144,0.327764 0.08955,0.458422 0.165484,0.937946 0.138938,1.416187 -0.01161,0.210396 -0.05367,0.403411 -0.09114,0.606209 -0.09778,0.310108 -0.216156,0.612565 -0.401265,0.843398 -0.05846,0.07287 -0.158936,0.159876 -0.225157,0.220243 0.195095,-0.158714 0.395307,-0.306239 0.585271,-0.476139 0.03792,-0.03396 -0.08426,0.04629 -0.127201,0.06639 -0.05695,0.02667 -0.120849,0.03154 -0.17219,0.07448 -0.245312,0.204911 -0.502784,0.387849 -0.728387,0.631278 -0.02401,0.02587 0.02507,0.0761 0.03753,0.114153 0.245306,0.31129 0.519809,0.572563 0.756495,0.898176 0.307958,0.4819 0.399781,1.105714 0.478219,1.716794 0.08507,0.759272 0.08335,1.531271 -0.0074,2.288861 -0.02343,0.06067 -0.03995,0.127148 -0.07011,0.182009 -0.02657,0.0484 -0.06502,0.08213 -0.09756,0.12332 0.185219,-0.157783 0.381148,-0.294308 0.555653,-0.473346 0.04507,-0.04626 -0.106605,0.05135 -0.161528,0.06907 -0.09324,0.02988 -0.281018,0.05922 -0.375911,0.07578 -0.252609,0.04876 -0.502995,0.118899 -0.757297,0.15057 -0.191551,0.233971 -0.421236,0.420491 -0.57466,0.701905 -0.03234,0.05931 0.103285,0.04465 0.154487,0.0688 0.05774,0.0272 0.115135,0.05564 0.172262,0.08517 0.218353,0.112682 0.430375,0.237648 0.640824,0.375157 0.304526,0.194956 0.555121,0.479699 0.686691,0.905771 0.09772,0.569692 0.08637,1.165651 0.01804,1.739557 -0.09463,0.56333 -0.261945,1.110173 -0.558022,1.530653 -0.377092,0.33276 0.333009,-0.254647 0.492149,-0.398006 0.03438,-0.03095 -0.07664,0.04133 -0.115679,0.05931 -0.09477,0.04357 -0.191905,0.07166 -0.289712,0.09865 -0.286661,0.06326 -0.128834,0.02084 -0.63608,0.696303 -0.01929,0.02568 0.05373,0.0053 0.08062,0.0081 0.118219,0.01252 0.216175,0.04392 0.327478,0.09985 0.247498,0.123186 0.422667,0.290823 0.58096,0.576911 0.130671,0.271686 0.187149,0.572613 0.21962,0.88995 0.0099,0.254985 0.04796,0.523155 6.5e-5,0.773269 -0.02401,0.08123 -0.04107,0.158406 -0.08378,0.226736 -0.184393,0.294811 -0.893885,0.807553 0.254492,-0.127002 -0.246198,0.166818 -0.515571,0.231542 -0.786591,0.265607 -0.347213,0.03426 0.184328,-0.382633 -0.704768,0.682469 -0.01719,0.02054 0.04586,-0.0018 0.06871,-1.9e-5 0.09597,0.0082 0.09483,0.01544 0.191991,0.05152 0.278755,0.140505 0.391862,0.411336 0.52979,0.746183 0.187909,0.488899 0.313194,1.021067 0.430303,1.548402 0.09899,0.488873 0.131321,0.702087 -0.112674,1.110825 -0.221122,0.249488 -0.772065,0.733371 0.34604,-0.230715 0.03608,-0.03116 -0.07774,0.04861 -0.117995,0.06824 -0.06496,0.03135 -0.176376,0.06605 -0.243522,0.08823 -0.126367,0.04325 -0.252406,0.08859 -0.379895,0.125548 -0.02499,0.0073 -0.158569,0.0368 -0.190311,0.06351 -0.24679,0.207318 -0.486126,0.430682 -0.729182,0.646005 0.01378,0.03917 0.02172,0.08342 0.04133,0.117625 0.107864,0.188299 0.381986,0.388956 0.530576,0.534756 0.279181,0.252095 0.3804,0.490885 0.487615,0.916085 0.111591,0.45077 0.156725,0.92291 0.184085,1.39501 0.0039,0.13493 -0.002,0.24736 -0.09314,0.32265 -0.02237,0.0187 -0.09432,0.0622 -0.07205,0.0431 0.624007,-0.52637 0.873978,-0.59398 0.533732,-0.48293 -0.136562,0.0233 -0.06864,0.0172 -0.203742,0.0188 0,0 -0.672454,0.66143 -0.672454,0.66143 v 0 c 0.142599,0.0142 0.0713,0.0141 0.213912,5.8e-4 0.399624,-0.0649 0.120055,-0.002 0.903379,-0.60981 0.04763,-0.0369 0.08792,-0.11402 0.105922,-0.18266 0.02723,-0.10375 0.01785,-0.18191 0.01627,-0.29083 -0.03484,-0.4791 -0.08524,-0.958 -0.196872,-1.41666 -0.112563,-0.443054 -0.217134,-0.714132 -0.509759,-0.978049 -0.08641,-0.08578 -0.138176,-0.139369 -0.227696,-0.219449 -0.09154,-0.08196 -0.221451,-0.170035 -0.280048,-0.297618 -0.227913,0.175251 -0.45559,0.351102 -0.683746,0.525762 -0.02401,0.01845 0.04521,-0.04479 0.0713,-0.05698 0.03608,-0.01663 0.07512,-0.01781 0.112497,-0.02789 0.128066,-0.03489 0.254649,-0.07897 0.380957,-0.123877 0.08321,-0.02717 0.167775,-0.04671 0.250274,-0.07769 0.443977,-0.166419 0.854209,-0.538347 1.17886,-0.97877 0.02821,-0.05952 0.06115,-0.115317 0.0848,-0.178431 0.125403,-0.334729 0.06937,-0.683278 -0.0096,-1.023249 -0.124877,-0.532015 -0.248455,-1.072625 -0.435894,-1.570255 -0.148956,-0.372202 -0.262542,-0.641172 -0.558369,-0.823392 -0.03838,-0.01808 -0.226142,-0.119188 -0.266945,-0.08305 -1.472227,1.304948 -0.920451,0.703431 -0.640397,0.658707 0.276793,-0.03444 0.554531,-0.08078 0.811261,-0.237003 0.187556,-0.145475 0.930385,-0.585143 1.144815,-1.038114 0.03838,-0.08105 0.05302,-0.16761 0.07367,-0.258147 0.02743,-0.267016 0.0067,-0.539256 -0.01516,-0.806191 -0.03897,-0.334119 -0.102169,-0.652046 -0.241028,-0.937789 -0.165688,-0.301152 -0.343055,-0.498138 -0.604547,-0.629564 -0.547216,-0.317424 -0.508263,-0.05762 -1.151343,0.531303 -0.0092,0.0081 0.01955,-0.01423 0.02933,-0.02129 0.501216,-0.15449 0.932556,-0.338378 1.336556,-0.882796 0.275606,-0.454864 0.439154,-1.007761 0.527946,-1.58267 0.06286,-0.595387 0.07658,-1.21397 -0.02854,-1.80246 -0.149554,-0.465302 -0.392642,-0.745689 -0.725619,-0.96743 -0.266296,-0.174422 -0.536416,-0.330639 -0.812159,-0.47492 -0.05125,-0.02676 -0.102905,-0.111869 -0.153216,-0.08204 -0.275317,0.163255 -0.515112,0.420721 -0.772675,0.631082 0.08984,-0.04912 0.196531,-0.04696 0.291438,-0.06532 0.15828,-0.0306 0.314769,-0.07534 0.472688,-0.108825 0.127017,-0.02121 0.254991,-0.03292 0.381194,-0.06182 0.467912,-0.106984 1.014275,-0.431781 1.161112,-1.076463 0.06996,-0.768736 0.06915,-1.546061 -0.01417,-2.313348 -0.08182,-0.633021 -0.174388,-1.282628 -0.490934,-1.784659 -0.228005,-0.313463 -0.486487,-0.576317 -0.729136,-0.867184 -0.03294,-0.378934 0.0033,-0.02031 -0.689015,0.517378 -0.02008,0.01557 0.03727,-0.03881 0.05885,-0.05033 0.0603,-0.03213 0.19207,-0.05651 0.246678,-0.09592 0.280409,-0.202507 0.552097,-0.426691 0.828149,-0.640028 0.299259,-0.303793 0.470832,-0.649466 0.594437,-1.133163 0.03687,-0.229065 0.06938,-0.389062 0.07818,-0.627738 0.01811,-0.489346 -0.05643,-0.978026 -0.150623,-1.446636 -0.02762,-0.113849 -0.05092,-0.229852 -0.08294,-0.341548 -0.117969,-0.411367 -0.315616,-0.756493 -0.562399,-1.038982 -0.174899,-0.201715 -0.49308,-0.646716 -0.721668,-0.692952 0.22603,0.213873 -6.56e-4,-0.01053 -0.652194,0.524052 -0.03018,0.02476 0.06686,-0.03031 0.100745,-0.04336 0.157192,-0.06034 0.316633,-0.110364 0.473175,-0.174126 0.12985,-0.0375 0.219291,-0.05751 0.344983,-0.117487 0.05957,-0.02851 0.265803,-0.153133 0.31841,-0.193257 0.830032,-0.633053 0.605596,-0.414832 1.000083,-0.821307 0.112536,-0.147766 0.17591,-0.208648 0.252839,-0.397164 0.117437,-0.287804 0.150367,-0.640805 0.179859,-0.960747 0.009,-0.414761 -0.0076,-0.835011 -0.121911,-1.22491 -0.189374,-0.523346 -0.443301,-0.995269 -0.756798,-1.394527 -0.205586,-0.243316 -0.43401,-0.448416 -0.639524,-0.688234 -0.228156,0.176702 -0.45458,0.357599 -0.684455,0.530108 -0.02782,0.02082 0.04862,-0.05792 0.07779,-0.07489 0.249808,-0.145483 0.579438,-0.14813 0.834284,-0.287539 0.302959,-0.21636 0.611987,-0.417622 0.908878,-0.649102 0.183317,-0.142926 0.167944,-0.509713 0.167885,-0.749833 -0.0081,-0.450114 -0.01844,-0.902765 -0.07804,-1.346673 -0.08293,-0.569199 -0.201636,-1.129616 -0.374522,-1.660995 -0.166185,-0.442505 -0.345481,-0.791058 -0.660795,-1.062569 -0.135185,-0.103119 -0.173468,-0.143181 -0.318029,-0.212217 -0.03694,-0.0176 -0.07615,-0.02516 -0.113829,-0.03972 -0.02762,-0.01064 -0.09338,-0.01213 -0.07925,-0.04629 0.0059,-0.01405 0.01856,-0.0198 0.02795,-0.02971 -0.211681,0.160846 -0.428814,0.308997 -0.635037,0.482527 -0.04172,0.03508 0.09194,-0.0471 0.139141,-0.06518 0.05833,-0.02244 0.118265,-0.0367 0.17713,-0.05651 0.470098,-0.158469 0.710903,-0.245466 1.197416,-0.736695 0.307421,-0.276513 0.38492,-0.509792 0.400903,-1.010508 -0.0095,-0.437068 -0.08285,-0.861834 -0.172715,-1.280586 -0.108606,-0.553546 -0.193867,-1.130587 -0.462486,-1.590059 -0.04934,-0.06488 -0.09409,-0.137035 -0.148117,-0.194592 -0.04724,-0.05033 -0.102497,-0.0848 -0.153792,-0.127079 -0.176645,-0.145596 -0.352705,-0.298081 -0.544263,-0.404958 -0.06774,-0.0371 -0.146654,-0.06064 -0.12554,-0.09298 0.01234,-0.0189 0.05806,-0.06235 0.0418,-0.05022 -1.052998,0.7856 -0.745965,0.568886 -0.4873,0.389211 0.565764,-0.389101 1.15001,-0.766022 1.624084,-1.347825 0.226601,-0.34734 0.401894,-0.72398 0.440165,-1.197279 0.02854,-0.489771 0.0096,-0.987042 -0.06522,-1.468375 -0.03819,-0.194339 -0.06003,-0.334475 -0.120613,-0.520567 -0.110902,-0.34067 -0.308956,-0.602672 -0.508945,-0.848169 -0.236508,-0.246719 -0.371523,-0.335162 -0.665454,-0.40897 -0.0416,-0.01043 -0.08769,-0.05326 -0.12533,-0.02699 -0.255903,0.178834 -0.487148,0.416791 -0.73073,0.625179 0.225052,-0.172449 0.496564,-0.213643 0.738879,-0.325542 0.520696,-0.209963 0.985642,-0.634861 1.425394,-1.060548 0.209818,-0.286388 0.346046,-0.631193 0.354575,-1.044771 -0.0067,-0.448791 -0.0206,-0.897306 -0.07078,-1.341762 -0.06345,-0.556394 -0.138919,-1.114536 -0.299679,-1.636497 -0.154855,-0.429932 -0.251992,-0.655884 -0.612112,-0.731439 -0.536212,-0.06437 -0.359496,-9.99e-4 -1.051784,0.609594 -0.01594,0.01405 0.03234,-0.02738 0.04849,-0.04113 0.544998,-0.290228 1.047198,-0.687698 1.546957,-1.106329 0.219798,-0.201959 0.530564,-0.462343 0.551192,-0.867333 0.0039,-0.06913 -0.0096,-0.138014 -0.01437,-0.207021 -0.08935,-0.624936 -0.22628,-1.232145 -0.392446,-1.827157 -0.08812,-0.326764 -0.20882,-0.856285 -0.466521,-1.015593 -0.02913,-0.01799 -0.0618,-0.02254 -0.09267,-0.03376 -0.215893,-0.03093 -0.433656,-0.0031 -0.650206,-0.02667 -0.03215,-0.0031 -0.0645,-0.01364 -0.09663,-0.01015 -0.01608,0.0021 -0.02953,0.0179 -0.04416,0.02689 0.0039,0.007 0.01581,0.01607 0.01057,0.02033 -0.222349,0.182977 -0.450872,0.351676 -0.676299,0.527518 0.02861,-0.02203 0.05675,-0.04548 0.08593,-0.0662 0.03956,-0.02819 0.08015,-0.05377 0.120239,-0.08065 0.161816,-0.111587 0.328567,-0.204839 0.492405,-0.310625 0.451974,-0.291824 0.884043,-0.637709 1.312345,-0.988578 0.270219,-0.221505 0.662363,-0.496321 0.814463,-0.892486 0.02001,-0.05215 0.0288,-0.110939 0.0433,-0.166424 0.05125,-0.345704 0.02362,-0.695612 -0.05302,-1.032168 -0.160819,-0.610939 -0.42287,-1.158592 -0.706769,-1.676257 -0.195653,-0.340924 -0.418159,-0.752249 -0.673465,-1.015614 -0.100234,-0.103406 -0.164356,-0.119389 -0.27821,-0.17074 -0.233969,-0.02618 -0.469723,-0.002 -0.703738,-0.03598 -0.2391,0.202474 -0.478193,0.404939 -0.717286,0.607413 0.02474,-0.01901 0.04849,-0.04084 0.07433,-0.057 0.160163,-0.100159 0.331762,-0.165646 0.49451,-0.25719 0.07249,-0.04071 0.143255,-0.08702 0.214883,-0.130465 0.505218,-0.395033 1.202782,-0.784408 1.520857,-1.535119 0.02972,-0.07013 0.04842,-0.147889 0.07263,-0.221838 0.06502,-0.358833 0.06716,-0.702979 0.02073,-1.066986 -0.054,-0.346371 -0.150781,-0.653205 -0.325189,-0.921855 -0.183973,-0.313091 -0.395431,-0.592444 -0.660211,-0.775949 -0.212573,-0.135265 -0.433308,-0.294049 -0.672015,-0.306146 -0.0092,0.006 -0.0227,0.006 -0.02743,0.01778 -0.0039,0.01015 4.27e-4,0.03043 0.0084,0.03072 0.02638,9.99e-4 0.196544,-0.271895 0.21851,-0.292037 0.135494,-0.283155 0.192333,-0.598569 0.165058,-0.937573 -0.01561,-0.24212 -0.03963,-0.485495 -0.113638,-0.709254 -0.06982,-0.279203 -0.0716,-0.584521 -0.163588,-0.856094 -0.07078,-0.223464 -0.161934,-0.522475 -0.320825,-0.658934 -0.02493,-0.02143 -0.05498,-0.02869 -0.08252,-0.04305 -0.239671,1.72e-4 -0.45836,0.170113 -0.685866,0.253531 -0.48247,0.17065 -0.968301,0.331364 -1.426844,0.604876 -0.460917,0.276696 -0.898747,0.626009 -1.307182,1.027126 -0.04324,0.04345 -0.08579,0.08823 -0.129555,0.130706 -0.02021,0.0196 -0.08327,0.07336 -0.06155,0.05711 1.202034,-0.898379 0.815775,-0.592123 0.568178,-0.437979 -0.01194,-0.0081 -0.02795,-0.01014 -0.03582,-0.02436 -0.08266,-0.154569 -0.06122,-0.557101 -0.155059,-0.721564 -0.140539,-0.390455 -0.32778,-0.75146 -0.571078,-1.03615 -0.356747,-0.256918 -0.608713,-0.08308 -0.97527,0.04729 -0.249085,0.07661 -0.502338,0.140329 -0.744167,0.254613 -0.433039,0.204626 -0.822847,0.577447 -1.215831,0.87471 -0.07957,0.06297 -0.255077,0.199571 -0.332543,0.269176 -0.183279,0.164666 -0.345666,0.368503 -0.529528,0.532229 0.197352,-0.148737 0.393988,-0.299244 0.592048,-0.446202 0.03419,-0.02537 -0.06502,0.05912 -0.100352,0.08135 -0.12264,0.07711 -0.210447,0.01536 -0.271341,-0.140967 -0.139561,-0.364895 -0.249893,-0.749954 -0.403383,-1.105673 -0.110502,-0.253896 -0.288531,-0.395296 -0.48024,-0.521659 -0.249625,-0.107845 -0.501571,-0.144694 -0.762591,-0.09379 -0.272549,0.04326 -0.535872,0.135841 -0.796433,0.253532 -0.739129,0.360894 -1.449906,0.802377 -2.116029,1.377679 -0.339098,0.273484 -0.677585,0.561813 -0.939531,0.970056 -0.03215,0.04639 -0.06384,0.09328 -0.09648,0.139065 -0.02893,0.04053 -0.125652,0.143632 -0.0881,0.119681 0.217927,-0.139006 0.419976,-0.320659 0.634787,-0.468397 0.01923,-0.01324 -0.02559,0.05053 -0.04507,0.06285 -0.04278,0.02689 -0.06253,-0.0474 -0.07739,-0.07651 -0.07382,-0.294404 -0.05163,-0.618792 -0.135755,-0.912255 -0.08862,-0.382411 -0.178594,-0.777131 -0.402314,-1.056182 -0.08227,-0.07225 -0.105274,-0.106652 -0.201649,-0.136407 -0.17557,-0.05418 -0.363584,0.01224 -0.540583,-10e-4 -0.399709,0.03204 -0.792562,0.136115 -1.172293,0.312109 -0.585991,0.267338 -1.176799,0.528985 -1.734546,0.89471 -0.120462,0.08561 -0.242511,0.167182 -0.361925,0.255544 -0.09253,0.06842 -0.184589,0.138166 -0.275747,0.209963 -0.02898,0.02283 -0.05418,0.05449 -0.08463,0.07327 -0.01749,0.01082 -0.0378,0.0091 -0.0567,0.01395 -0.172835,0.06043 -0.159145,-0.222881 -0.179098,-0.382978 -0.02372,-0.37 -0.04573,-0.779505 -0.243817,-1.060103 -0.261517,-0.311352 -0.470514,-0.386879 -0.818117,-0.366401 -0.339925,0.02759 -0.665064,0.168364 -0.978168,0.347612 -0.429125,0.274353 -0.851722,0.567371 -1.279305,0.84617 -0.308197,0.206335 -0.610122,0.432033 -0.923877,0.621196 -0.01653,0.004 -0.03424,0.02011 -0.04951,0.01082 -0.10418,-0.06397 -0.06952,-0.467559 -0.08475,-0.587938 -0.02905,-0.35025 -0.09077,-0.694378 -0.232166,-0.994803 -0.148709,-0.240031 -0.371172,-0.482183 -0.602146,-0.551656 -0.05351,-0.01607 -0.109397,-0.0081 -0.164088,-0.01284 -0.651493,0.06549 -1.281433,0.350898 -1.894534,0.641704 -0.794859,0.435874 -0.425338,0.205051 -1.548908,1.065215 -0.368172,0.281871 -0.691332,0.619308 -0.941257,1.08814 -0.03209,0.06702 -0.154328,0.213379 -0.09633,0.201008 0.770037,-0.164161 0.681674,-0.03244 0.678273,-0.476038 -7.22e-4,-0.131192 1.1e-4,-0.262415 -0.0023,-0.393598 -0.0059,-0.407343 3.41e-4,-0.831573 -0.115572,-1.214369 -0.02172,-0.04316 -0.03943,-0.09066 -0.06522,-0.129554 C 22.51872,28.972741 22.25469,29.0211 22.038231,29.02189 c -0.592474,0.09661 -1.178982,0.262113 -1.744158,0.52672 -0.784853,0.420674 -1.538384,0.978514 -2.189699,1.713408 -0.158967,0.199615 -0.315356,0.403412 -0.475249,0.601582 -0.223057,0.276443 -0.766383,0.765134 0.352829,-0.174943 -0.199065,0.188252 -0.256099,0.08741 -0.295055,-0.216615 -0.02602,-0.409647 -0.02142,-0.82371 -0.08017,-1.228973 -0.06619,-0.448739 -0.149799,-0.886119 -0.390177,-1.226486 -0.06663,-0.08803 -0.203905,-0.277666 -0.281624,-0.346219 -0.170819,-0.150709 -0.390519,-0.177863 -0.5875,-0.172367 -0.250014,0.006 -0.505705,0.005 -0.743014,0.127545 -0.408018,0.233693 -0.09837,0.04851 -0.942516,0.713823 -0.209865,0.165404 -0.411782,0.346603 -0.585699,0.579407 -0.392646,0.522779 -0.764768,1.079487 -1.09892,1.673073 -0.101192,0.207305 -0.14942,0.28558 -0.221907,0.510489 -0.112222,0.34818 -0.157167,0.733037 -0.175503,1.109343 -0.0146,0.633315 -0.0015,1.267034 -0.01423,1.900471 0,0 0.738693,-0.51322 0.738693,-0.51322 z" />
    <path
       style="fill:#f0b8dc;stroke-width:0.0654095;fill-opacity:1"
       id="path2857"
       d="m 50.478915,103.5124 c 0.290572,0.52454 0.445223,1.14764 0.566473,1.77578 0.106578,0.54366 0.04809,1.08428 -0.111965,1.59336 -0.0576,0.12816 -0.10507,0.25326 -0.185155,0.35932 -0.03491,0.0462 -0.159159,0.15215 -0.116578,0.11996 1.084466,-0.81984 0.606043,-0.45465 0.316049,-0.34347 -0.294167,0.10679 -0.460124,-0.0124 -0.687663,-0.25332 -0.244126,-0.24518 -0.424196,-0.57494 -0.62633,-0.87645 -0.04343,-0.026 -0.08313,-0.0848 -0.130389,-0.0783 -0.09359,0.013 -0.182458,0.071 -0.264747,0.13325 -0.363892,0.27492 -0.71833,0.57293 -1.0703,0.87533 -0.149272,0.12825 -0.289338,0.27545 -0.432567,0.41594 -0.54591,0.54632 -0.278716,0.28269 -0.801197,0.79162 -0.265875,0.25103 -0.358243,0.34237 -0.620031,0.57493 -0.08167,0.0726 -0.330837,0.28126 -0.246848,0.21377 0.829757,-0.66646 0.482694,-0.37094 0.233831,-0.2574 -0.08167,0.0373 -0.16637,0.0608 -0.249551,0.0911 -0.321377,0.0814 -0.663026,0.14995 -0.980085,-0.005 -0.195213,-0.0953 -0.283656,-0.19825 -0.45166,-0.35426 -0.381975,-0.35172 -0.624257,-0.86699 -0.853003,-1.397 -0.04586,-0.0934 -0.111684,-0.29261 -0.226582,-0.2866 -0.291267,0.0154 -0.91114,0.54436 -1.156887,0.73944 -0.366778,0.29113 -0.731287,0.58754 -1.096938,0.88133 0.310505,-0.25742 -0.962527,0.79218 -0.724405,0.58854 0.130737,-0.1118 0.27039,-0.20424 0.397616,-0.32332 0.08289,-0.0777 -0.175732,0.13325 -0.264176,0.19844 -0.260981,0.19231 -0.250227,0.18149 -0.50594,0.35491 -0.389402,0.2534 -0.737383,0.40176 -1.171597,0.3653 -0.46633,-0.17668 -0.764651,-0.68599 -1.039469,-1.19488 -0.124589,-0.24566 -0.240052,-0.49916 -0.356609,-0.75182 -0.03149,-0.0683 -0.129031,-0.28047 -0.175733,-0.34686 -0.03261,-0.0465 -0.07309,-0.0814 -0.109591,-0.12201 -0.0749,-0.0106 -0.149481,-0.0367 -0.224697,-0.0318 -0.403279,0.0263 -0.985859,0.4611 -1.352599,0.7044 -0.314644,0.19498 -0.622655,0.4203 -0.94747,0.58395 -0.187214,0.0943 -0.322491,0.13458 -0.519075,0.20465 -0.705798,0.23061 -1.433149,0.3504 -2.158695,0.36068 -0.255349,-0.0364 -0.530971,-0.0919 -0.716516,-0.35981 -0.05054,-0.073 -0.105847,-0.2064 -0.143514,-0.29032 -0.125837,-0.29797 -0.115305,-0.65608 -0.236576,-0.95466 -0.04054,-0.0216 -0.07827,-0.061 -0.121731,-0.0646 -0.199664,-0.0166 -0.630465,0.23782 -0.811558,0.32283 -0.89769,0.42141 0.1307,-0.0721 -0.801537,0.37811 -0.693444,0.36287 -1.379944,0.76472 -2.103434,1.00691 -0.129373,0.0435 -0.260546,0.0758 -0.390822,0.11386 -0.584944,0.13591 -1.190787,0.22982 -1.779637,0.0726 -0.09813,-0.0261 -0.193373,-0.0696 -0.290052,-0.10438 -0.434929,-0.19672 -0.793318,-0.53766 -1.124223,-0.95902 -0.277821,-0.31739 -0.416058,-0.22417 -0.721171,0.0206 -0.851195,0.68292 -0.742969,0.59246 -1.284598,1.09748 0.228816,-0.17403 -0.748476,0.64242 -0.558661,0.48775 0.142306,-0.11594 0.299302,-0.20586 0.423404,-0.35575 0.06804,-0.0822 -0.165883,0.10145 -0.250421,0.14685 -0.185139,0.0995 -0.23459,0.11165 -0.419669,0.18197 -0.569422,0.18983 -1.07314,-0.0323 -1.596418,-0.33405 -0.525374,-0.34233 -1.005923,-0.79573 -1.436888,-1.32734 -0.05403,-0.0453 -0.102734,-0.10577 -0.162199,-0.13614 -0.338768,-0.17293 -0.720274,0.18175 -0.999245,0.39535 -0.303333,0.24322 -0.606667,0.48642 -0.91,0.72962 -0.06545,0.0548 -0.263066,0.21636 -0.196315,0.16453 0.174376,-0.13536 0.348989,-0.27047 0.51926,-0.41522 0.04951,-0.042 -0.103372,0.0738 -0.156388,0.10675 -0.114942,0.0716 -0.173005,0.0942 -0.292512,0.14981 -0.264934,0.10493 -0.54057,0.17216 -0.816776,0.15439 -0.390044,-0.069 -0.612804,-0.50204 -0.796883,-0.93356 -0.142854,-0.32629 -0.168417,-0.71731 -0.281446,-1.05898 -0.05255,-0.15885 -0.08342,-0.19115 -0.16257,-0.31691 -0.214088,-0.24923 -0.462805,-0.0755 -0.691695,0.0367 -0.328221,0.14735 -0.673557,0.19677 -1.016492,0.15227 -0.29922,-0.0624 -0.543979,-0.28003 -0.698455,-0.63907 -0.03572,-0.0831 -0.06048,-0.17415 -0.09076,-0.26122 -0.158649,-0.57852 -0.200554,-1.19871 -0.179483,-1.81153 0.06077,-0.3879 0.131159,-0.80525 0.303541,-1.13542 0.05863,-0.11223 0.204372,-0.29813 0.277659,-0.39565 0.05818,-0.15059 0.285805,-0.25866 0.352548,-0.39267 0.09371,-0.18812 0.04136,-0.43899 0.009,-0.63444 -0.208323,-0.80786 -0.455839,-1.59833 -0.710847,-2.380945 -0.196723,-0.591584 -0.440259,-1.152585 -0.5857,-1.773192 -0.106685,-0.431755 -0.153186,-0.881981 -0.153941,-1.336033 -0.0023,-0.479513 0.09877,-0.937436 0.312834,-1.317688 0.07698,-0.108029 0.15358,-0.222282 0.24235,-0.313211 0.218536,-0.223855 0.749529,-0.621662 -0.393646,0.303243 0.482053,-0.273004 0.76894,-0.418987 1.218278,-0.978515 0.03847,-0.04779 -0.0037,-0.141904 -0.0052,-0.21287 -0.08029,-0.558582 -0.306654,-1.036223 -0.540072,-1.496536 -0.197383,-0.311131 -0.371485,-0.63199 -0.495002,-1.008374 -0.139882,-0.427369 -0.175555,-0.889176 -0.198561,-1.350398 7.22e-4,-0.368197 -0.01231,-0.750324 0.09136,-1.099241 0.05358,-0.180309 0.115171,-0.283947 0.195277,-0.443169 0.131122,-0.195402 0.269107,-0.38659 0.428208,-0.540427 0.04684,-0.04527 0.19581,-0.163715 0.146367,-0.123884 -0.640709,0.515923 -0.748491,0.578898 -0.435181,0.37633 0.354208,-0.234266 0.333165,-0.215792 0.911668,-0.704858 0.06871,-0.05806 0.09254,-0.158685 0.08105,-0.265221 -0.01482,-0.13742 -0.104499,-0.372921 -0.1449,-0.49064 -0.203438,-0.538611 -0.525241,-0.952213 -0.841116,-1.365938 -0.305594,-0.415327 -0.47087,-0.876793 -0.579636,-1.43827 -0.05744,-0.429497 -0.111178,-0.87849 -0.05752,-1.314889 0.0099,-0.08015 0.02801,-0.157873 0.0421,-0.236806 0.09487,-0.548804 0.306677,-0.745122 0.634172,-1.04557 0.339978,-0.357356 0.740798,-0.592806 1.080316,-0.948278 0.01519,-0.06196 0.04113,-0.120813 0.04551,-0.185848 0.02854,-0.427597 -0.343846,-1.086713 -0.510441,-1.421916 -0.202622,-0.439655 -0.466725,-0.808118 -0.726306,-1.182786 -0.252912,-0.417612 -0.342565,-0.93732 -0.429371,-1.452964 -0.05551,-0.541568 -0.178194,-1.108816 -0.119626,-1.66136 0.01082,-0.101768 0.03498,-0.200028 0.05248,-0.300032 0.208537,-0.718543 0.564183,-1.330775 0.942094,-1.897296 0.10976,-0.194824 0.368304,-0.398147 0.361523,-0.685657 -0.0037,-0.163583 -0.07041,-0.279889 -0.126889,-0.415054 -0.12878,-0.235371 -0.280713,-0.44306 -0.431935,-0.650889 -0.04461,-0.06145 -0.09466,-0.116378 -0.133768,-0.184445 -0.107551,-0.187174 -0.124791,-0.297233 -0.188881,-0.519365 -0.135576,-0.643885 -0.149607,-1.316201 -0.161821,-1.981069 0.0051,-0.465758 -0.01949,-0.934418 0.0082,-1.39955 0.01831,-0.307005 0.03632,-0.386119 0.07996,-0.682432 0.05655,-0.231964 0.116373,-0.476189 0.234524,-0.666616 0.146278,-0.235766 0.929419,-0.800406 -0.399147,0.26952 0.470477,-0.287671 0.708788,-0.415871 1.188543,-0.944857 0.02757,-0.03042 -4.3e-4,-0.09673 -7.22e-4,-0.145039 -0.0098,-0.04729 -0.01334,-0.09793 -0.02943,-0.141968 -0.04544,-0.124198 -0.137176,-0.23833 -0.204838,-0.333686 -0.134012,-0.188879 -0.277586,-0.36144 -0.417068,-0.542649 -0.334174,-0.374285 -0.515725,-0.883581 -0.683638,-1.413618 -0.14026,-0.423525 -0.184731,-0.873476 -0.203549,-1.331917 -0.003,-0.45629 -0.02646,-0.915217 -0.01075,-1.371526 0.0084,-0.242233 0.02624,-0.338336 0.05662,-0.573394 0.103512,-0.548379 0.313866,-1.044286 0.537367,-1.516503 0.04062,-0.06347 0.07639,-0.133435 0.121916,-0.190397 0.04699,-0.05881 0.100629,-0.10732 0.154039,-0.154892 0.05959,-0.05306 0.24481,-0.197876 0.184427,-0.146544 -0.167239,0.142199 -0.34232,0.26762 -0.505082,0.419168 -0.05373,0.05003 0.120404,-0.06862 0.176578,-0.113293 0.277844,-0.221234 0.549789,-0.455967 0.824691,-0.683949 0.01579,-0.05589 0.04536,-0.107918 0.04729,-0.167769 0.0095,-0.299182 -0.325405,-0.832424 -0.456838,-1.069866 -0.203882,-0.35019 -0.396195,-0.728326 -0.524293,-1.142805 -0.03417,-0.110423 -0.05922,-0.225629 -0.08889,-0.338446 -0.187317,-0.682179 -0.341348,-1.379449 -0.448419,-2.09303 -0.03757,-0.351939 -0.09779,-0.712023 -0.02424,-1.063549 0.04929,-0.235412 0.137481,-0.442787 0.218551,-0.658814 0.217239,-0.525821 0.509507,-0.97825 0.801478,-1.427281 0,0 -0.739827,0.425483 -0.739827,0.425483 v 0 c -0.292691,0.458048 -0.5869222,0.919551 -0.7999437,1.45739 -0.088007,0.24669 -0.1638294,0.425029 -0.2124433,0.692742 -0.066484,0.366157 -0.010006,0.73822 0.035351,1.101559 0.1186996,0.713832 0.277185,1.412426 0.4592254,2.100973 0.029864,0.11767 0.055147,0.237725 0.08969,0.353021 0.126577,0.422755 0.321937,0.808228 0.528013,1.164422 0.100355,0.179998 0.448546,0.73713 0.408396,0.963284 -0.0082,0.0464 -0.03884,0.07944 -0.05825,0.119215 0.193825,-0.142723 0.390317,-0.27894 0.581482,-0.428193 0.05714,-0.04457 -0.121079,0.07125 -0.179017,0.113982 -0.191349,0.140997 -0.95393,0.625361 -1.226794,1.014755 -0.04388,0.06257 -0.07865,0.135942 -0.11798,0.203917 -0.2194825,0.486237 -0.4300363,0.992987 -0.5213413,1.555627 -0.072487,0.651932 -0.043284,1.310471 -0.040095,1.967911 0.017492,0.47257 0.071524,0.93172 0.2210187,1.364632 0.1754807,0.539789 0.3547246,1.070735 0.6971036,1.454247 0.138459,0.179776 0.281899,0.349139 0.413465,0.538538 0.03913,0.05629 0.146294,0.200693 0.176304,0.289448 0.01142,0.03374 0.01082,0.07297 0.01623,0.109383 -0.07182,0.423747 -0.03654,0.106937 0.638346,-0.381773 0.03373,-0.02446 -0.06538,0.05448 -0.100379,0.07539 -0.07601,0.04548 -0.157188,0.07359 -0.233515,0.118035 -0.03505,0.02041 -0.06937,0.04346 -0.104016,0.06518 -0.741932,0.583682 -1.000862,0.563307 -1.211984,1.589694 -0.039212,0.298244 -0.05677,0.388435 -0.073305,0.696542 -0.025049,0.467608 -0.00226,0.937966 -0.00663,1.406069 0.00919,0.677885 0.037136,1.360862 0.173767,2.016775 0.06589,0.228852 0.09105,0.366786 0.202023,0.562074 0.03899,0.06862 0.09064,0.121804 0.135924,0.182757 0.147382,0.198341 0.292861,0.399288 0.415896,0.627554 0.04461,0.112273 0.100051,0.201765 0.09016,0.337132 -0.01727,0.235837 -0.272975,0.457372 -0.363147,0.63561 -0.37399,0.583965 -0.7304712,1.21264 -0.9252002,1.949144 -0.016009,0.106704 -0.038763,0.211932 -0.048027,0.320103 -0.048251,0.561557 0.079276,1.131758 0.1361909,1.68139 0.087822,0.538678 0.1749546,1.078022 0.4378333,1.515685 0.259507,0.367685 0.52948,0.722353 0.732141,1.15652 0.134419,0.269712 0.525849,0.982524 0.457765,1.331008 -0.0097,0.04952 -0.0395,0.08731 -0.05929,0.130993 -0.348648,0.332757 -0.732615,0.593992 -1.074505,0.941757 -0.3483871,0.337305 -0.5181832,0.540264 -0.6136611,1.12442 -0.079543,0.537445 -0.054404,1.063893 0.03602,1.597647 0.1152825,0.57429 0.2900807,1.062945 0.5994681,1.49314 0.310812,0.401167 0.634685,0.794172 0.826768,1.327666 0.03113,0.09702 0.111013,0.305866 0.110154,0.430833 -7.22e-4,0.121136 -0.139023,0.207873 -0.106314,0.183834 1.248287,-0.917375 0.726499,-0.554608 0.507215,-0.403465 -0.571772,0.362373 -1.13964,0.757158 -1.535494,1.437565 -0.085221,0.186759 -0.1317056,0.265374 -0.18507,0.474794 -0.092632,0.363483 -0.077446,0.754547 -0.078446,1.132577 0.023718,0.475296 0.063669,0.948624 0.2076179,1.388935 0.1306091,0.393592 0.2945491,0.703177 0.5069621,1.022849 0.224859,0.438588 0.452118,0.895947 0.509871,1.437339 -0.04158,0.508399 -0.05077,0.188381 0.643162,-0.294476 0.03187,-0.02208 -0.06041,0.05279 -0.09272,0.07369 -0.123353,0.07968 -0.259485,0.117016 -0.381617,0.201084 -0.444386,0.342607 -0.930901,0.605143 -1.2514584,1.162172 -0.1947221,0.412355 -0.2929058,0.886097 -0.2871169,1.378204 0.00446,0.464883 0.054254,0.925277 0.1665052,1.366063 0.1528303,0.620981 0.4019381,1.179809 0.6045531,1.771567 0.251207,0.77674 0.503111,1.55906 0.68667,2.37085 0.0186,0.15568 0.0467,0.24448 0.0076,0.39447 -0.05803,0.22251 -0.301133,0.343 -0.40163,0.5333 -0.09925,0.14208 -0.187836,0.25596 -0.266192,0.42395 -0.164104,0.35183 -0.235191,0.77493 -0.285531,1.17951 -0.01394,0.63066 0.02727,1.26661 0.196197,1.85967 0.03209,0.0936 0.05848,0.191 0.09623,0.2804 0.161532,0.38222 0.416889,0.63754 0.734112,0.71812 0.06159,0.0119 0.122724,0.0299 0.184805,0.0357 0.284759,0.0262 0.575619,-0.0496 0.850151,-0.1428 0.135064,-0.0633 0.414124,-0.25819 0.554428,-0.20837 0.03009,0.0108 0.05396,0.0422 0.08089,0.0633 0.07525,0.10958 0.101296,0.13165 0.150829,0.27578 0.118566,0.34502 0.149525,0.74103 0.295284,1.07163 0.144397,0.34359 0.307329,0.69224 0.561619,0.90614 0.08625,0.0727 0.172404,0.0924 0.268202,0.12594 0.28126,0.0494 0.565094,-0.0299 0.838721,-0.11999 0.513309,-0.218 0.83223,-0.52769 1.340935,-0.9312 0.06567,-0.0521 0.261317,-0.21152 0.193995,-0.1634 -0.162784,0.11632 -0.320447,0.24549 -0.480674,0.36823 0.226274,-0.17884 0.664976,-0.58475 0.943117,-0.48362 0.05692,0.0207 0.103416,0.0772 0.155128,0.11568 0.443601,0.53089 0.934125,0.98549 1.461843,1.3477 0.515376,0.3082 1.049297,0.56875 1.617949,0.40408 0.821311,-0.28869 1.501651,-0.9022 2.200543,-1.53927 0.09955,-0.0924 0.419009,-0.26986 0.298664,-0.27753 -0.145537,-0.009 -0.250925,0.20842 -0.389014,0.27178 -0.09251,0.0424 0.162822,-0.14806 0.249984,-0.20798 0.124139,-0.0854 0.16732,-0.10698 0.285546,-0.0256 0.0418,0.0288 0.07615,0.0743 0.11423,0.11137 0.3483,0.42904 0.708771,0.77977 1.158487,0.9918 0.09921,0.0381 0.196796,0.085 0.297612,0.11411 0.594541,0.17167 1.209739,0.0812 1.802605,-0.0486 0.131596,-0.0366 0.264111,-0.0672 0.39478,-0.10953 0.726071,-0.23485 1.415675,-0.63483 2.108882,-1.00256 0.822319,-0.39878 0.0023,-0.006 0.795111,-0.37183 0.253037,-0.11677 0.504771,-0.25864 0.764872,-0.34579 0.02653,-0.009 0.05396,-0.0116 0.08095,-0.0173 0.130736,0.289 0.102712,0.66483 0.24226,0.95303 0.0464,0.10364 0.09692,0.22814 0.158078,0.3179 0.199028,0.29213 0.484322,0.37102 0.763278,0.41456 0.727598,-0.005 1.45854,-0.12731 2.169061,-0.33851 0.149239,-0.0488 0.372015,-0.11556 0.521346,-0.18629 0.329275,-0.15596 0.637411,-0.394 0.955776,-0.58429 0.479072,-0.3212 0.967612,-0.71057 1.510393,-0.75953 0.033,0.0323 0.06975,0.0582 0.09894,0.0966 0.0479,0.063 0.146083,0.26735 0.17736,0.33276 0.120763,0.25248 0.237394,0.50872 0.364391,0.75563 0.288262,0.53235 0.597073,1.05227 1.070962,1.27967 0.06089,0.009 0.121315,0.026 0.182524,0.028 0.357396,0.0117 0.703107,-0.15655 1.023801,-0.35282 0.847236,-0.56734 1.657643,-1.23099 2.465099,-1.89615 -0.08304,0.0598 -0.328856,0.2476 -0.249099,0.17986 0.18627,-0.15817 0.615189,-0.47363 0.820959,-0.61644 0.07212,-0.05 0.254906,-0.25753 0.371267,-0.13319 0.04291,0.0459 0.06312,0.12125 0.09471,0.18187 0.2391,0.53949 0.483843,1.07335 0.876341,1.43352 0.162912,0.15491 0.279726,0.28382 0.466757,0.38727 0.322439,0.17834 0.67107,0.12457 1.004164,0.0485 0.08492,-0.0259 0.171344,-0.0438 0.254755,-0.0778 0.382367,-0.15487 0.940304,-0.65527 1.160784,-0.82889 0.295604,-0.23278 0.563474,-0.5291 0.847898,-0.78467 0.265541,-0.26116 0.527926,-0.52829 0.794898,-0.78671 0.145834,-0.14117 0.320765,-0.23584 0.441418,-0.41584 0.0759,-0.11322 -0.189918,0.18661 -0.301411,0.20698 -0.113947,0.0209 0.287088,-0.3179 0.323916,-0.16154 0.208393,0.30077 0.387958,0.63888 0.632031,0.89262 0.234625,0.25191 0.417673,0.43192 0.731301,0.33664 0.556244,-0.16771 1.13452,-0.57118 1.38705,-1.28942 0.149095,-0.53383 0.196623,-1.0959 0.082,-1.6538 -0.130199,-0.63579 -0.291307,-1.26376 -0.563435,-1.81592 0,0 -0.718579,0.57029 -0.718579,0.57029 z" />
    <path
       style="fill:#f0b8dc;stroke-width:0.0654095;fill-opacity:1"
       id="path2859"
       d="m 11.295272,47.602957 c -0.117514,-0.556566 -0.251021,-1.105854 -0.441422,-1.624319 -0.159686,-0.375679 -0.353756,-0.720949 -0.54077,-1.071492 -0.176607,-0.337771 -0.23364,-0.74945 -0.271455,-1.15271 -0.03951,-0.485881 0.04699,-0.96879 0.145967,-1.431993 0.140082,-0.537241 0.345492,-1.033108 0.605385,-1.477986 0.199324,-0.357498 0.44421,-0.664988 0.707104,-0.933842 0.336145,-0.326198 0.245085,-0.492884 0.07019,-0.941089 -0.167409,-0.417934 -0.38908,-0.786186 -0.595409,-1.168021 -0.176525,-0.332009 -0.309003,-0.69559 -0.388665,-1.09022 -0.04321,-0.306641 -0.06937,-0.62522 -0.04499,-0.936874 0.01157,-0.107119 0.02105,-0.228144 0.0822,-0.308602 0.05715,-0.0752 0.271634,-0.224203 0.203824,-0.167929 -0.181855,0.150909 -0.366156,0.296261 -0.549234,0.444392 0.355186,-0.245032 0.718926,-0.466608 1.074068,-0.711478 0.245707,-0.190074 0.50715,-0.332525 0.771549,-0.465051 0.08611,-0.03568 0.170559,-0.07621 0.25406,-0.121845 0,0 0.651212,-0.703838 0.651212,-0.703838 v 0 c -0.08104,0.05448 -0.162814,0.103809 -0.251785,0.13004 -0.268742,0.12898 -0.535077,0.269238 -0.78429,0.459665 -0.351176,0.254795 -0.71814,0.468862 -1.073741,0.712054 -0.287287,0.220677 -0.576331,0.437148 -0.861855,0.662028 -0.1803424,0.142037 -0.2457136,0.299639 -0.2581135,0.576577 -0.011121,0.324793 0.00823,0.653073 0.061517,0.970235 0.087954,0.403746 0.2251835,0.780064 0.4061345,1.122462 0.202622,0.378407 0.427851,0.736542 0.590139,1.152284 0.04833,0.13002 0.152097,0.334395 0.111703,0.495806 -0.03528,0.141015 -0.163704,0.213682 -0.23582,0.307773 -0.256188,0.283367 -0.497722,0.593445 -0.694134,0.956835 -0.2534824,0.459037 -0.4534439,0.968627 -0.5883088,1.514179 -0.097872,0.4792 -0.1867684,0.978472 -0.1390738,1.478967 0.044543,0.419561 0.1111537,0.847603 0.2917416,1.201371 0.1864718,0.343743 0.376177,0.685384 0.539725,1.050674 0.189748,0.512673 0.32562,1.056677 0.426687,1.614021 0,0 0.725819,-0.542074 0.725819,-0.542074 z" />
    <circle
       id="path2873"
       style="fill:#f0b8dc;stroke:#000000;stroke-width:0.264583;fill-opacity:1"
       cx="6.7503376"
       cy="76.805351"
       r="0.045535188" />
    <circle
       id="path2875"
       style="fill:#f0b8dc;stroke:#000000;stroke-width:0.264583;fill-opacity:1"
       cx="6.7503376"
       cy="76.805351"
       r="0.045535188" />
  </g>
</svg>
